<svg xmlns="http://www.w3.org/2000/svg" viewBox="0 0 128 128">
  <!-- Background Circle -->
  <circle cx="64" cy="64" r="62" fill="#1DA1F2" />
  <circle cx="64" cy="64" r="56" fill="#ffffff" />
  
  <!-- Clock Face -->
  <circle cx="64" cy="64" r="51" fill="#1DA1F2" />
  
  <!-- Clock Markings -->
  <line x1="64" y1="20" x2="64" y2="28" stroke="#ffffff" stroke-width="4" />
  <line x1="64" y1="100" x2="64" y2="108" stroke="#ffffff" stroke-width="4" />
  <line x1="20" y1="64" x2="28" y2="64" stroke="#ffffff" stroke-width="4" />
  <line x1="100" y1="64" x2="108" y2="64" stroke="#ffffff" stroke-width="4" />
  
  <!-- Hour Markings -->
  <line x1="35" y1="35" x2="40" y2="40" stroke="#ffffff" stroke-width="3" />
  <line x1="35" y1="93" x2="40" y2="88" stroke="#ffffff" stroke-width="3" />
  <line x1="93" y1="35" x2="88" y2="40" stroke="#ffffff" stroke-width="3" />
  <line x1="93" y1="93" x2="88" y2="88" stroke="#ffffff" stroke-width="3" />
  
  <!-- Clock Hands -->
  <line x1="64" y1="64" x2="64" y2="32" stroke="#ffffff" stroke-width="6" stroke-linecap="round" />
  <line x1="64" y1="64" x2="88" y2="64" stroke="#ffffff" stroke-width="6" stroke-linecap="round" />
  
  <!-- Twitter Bird (Simplified) -->
  <path d="M94 45c-2 1-4 1.6-6 2 2-1.2 3.6-3 4.4-5.2-2 1.2-4 2-6.4 2.4-1.8-2-4.4-3.2-7.2-3.2-5.4 0-9.8 4.4-9.8 9.8 0 .8 0 1.6.2 2.2-8.2-.4-15.4-4.2-20.2-10-.8 1.4-1.2 3-1.2 5 0 3.4 1.8 6.4 4.4 8.2-1.6 0-3.2-.4-4.6-1.2v.2c0 4.8 3.4 8.8 7.8 9.6-.8.2-1.8.2-2.6.2-.6 0-1.2 0-1.8-.2 1.2 3.8 4.8 6.8 9 7-3.4 2.6-7.4 4-12 4h-2.4c4.4 2.8 9.6 4.4 15.2 4.4 18.2 0 28-15 28-28v-1.2c2-1.4 3.8-3.2 5.2-5.2z" fill="#ffffff"/>
  
  <!-- Center Dot -->
  <circle cx="64" cy="64" r="4" fill="#ffffff" />
</svg>
