<svg xmlns="http://www.w3.org/2000/svg" viewBox="0 0 48 48">
  <!-- Background Circle -->
  <circle cx="24" cy="24" r="23" fill="#1DA1F2" />
  <circle cx="24" cy="24" r="21" fill="#ffffff" />
  
  <!-- Clock Face -->
  <circle cx="24" cy="24" r="19" fill="#1DA1F2" />
  
  <!-- Clock Markings -->
  <line x1="24" y1="8" x2="24" y2="11" stroke="#ffffff" stroke-width="2" />
  <line x1="24" y1="37" x2="24" y2="40" stroke="#ffffff" stroke-width="2" />
  <line x1="8" y1="24" x2="11" y2="24" stroke="#ffffff" stroke-width="2" />
  <line x1="37" y1="24" x2="40" y2="24" stroke="#ffffff" stroke-width="2" />
  
  <!-- Clock Hands -->
  <line x1="24" y1="24" x2="24" y2="13" stroke="#ffffff" stroke-width="3" stroke-linecap="round" />
  <line x1="24" y1="24" x2="32" y2="24" stroke="#ffffff" stroke-width="3" stroke-linecap="round" />
  
  <!-- Twitter Bird (Simplified) -->
  <path d="M34 17.5c-.6.3-1.2.5-1.9.6.7-.4 1.2-1 1.4-1.8-.6.4-1.3.6-2.1.8-.6-.6-1.5-1-2.4-1-1.8 0-3.3 1.5-3.3 3.3 0 .3 0 .5.1.7-2.7-.1-5.1-1.4-6.7-3.4-.3.5-.4 1-.4 1.7 0 1.1.6 2.1 1.5 2.7-.5 0-1-.2-1.5-.4 0 1.6 1.1 2.9 2.6 3.2-.3.1-.6.1-.9.1-.2 0-.4 0-.6-.1.4 1.3 1.6 2.3 3.1 2.3-1.1.9-2.5 1.4-4.1 1.4h-.8c1.5.9 3.2 1.5 5 1.5 6 0 9.3-5 9.3-9.3v-.4c.7-.5 1.3-1.1 1.7-1.8z" fill="#ffffff"/>
  
  <!-- Center Dot -->
  <circle cx="24" cy="24" r="2" fill="#ffffff" />
</svg>
